<?xml version="1.0" encoding="UTF-8" ?>
<!DOCTYPE svg PUBLIC "-//W3C//DTD SVG 1.1//EN" "http://www.w3.org/Graphics/SVG/1.1/DTD/svg11.dtd">
<svg width="1050pt" height="1050pt" viewBox="0 0 1050 1050" version="1.1" xmlns="http://www.w3.org/2000/svg">
<g id="#033b5bff">
<path fill="#033b5b" opacity="1.00" d=" M 262.82 320.59 C 267.23 315.12 273.19 311.11 279.82 308.84 C 278.75 311.43 277.64 314.00 276.50 316.55 C 284.14 312.89 293.72 311.34 301.16 316.31 C 292.80 318.14 284.52 321.10 277.76 326.48 C 284.08 324.74 291.56 324.52 296.52 329.51 C 286.95 332.55 277.01 335.22 268.59 340.91 C 273.99 339.23 279.89 338.39 285.18 340.97 C 277.43 345.20 269.41 349.13 262.65 354.89 C 267.98 352.56 274.01 350.36 279.78 352.56 C 283.16 350.93 286.61 349.47 290.20 348.36 C 288.09 350.89 285.86 353.32 283.69 355.81 C 293.26 349.47 304.65 346.12 316.10 345.85 C 312.49 348.00 308.77 349.95 305.11 352.01 C 311.45 351.09 317.98 351.51 324.07 353.57 C 324.99 354.13 327.01 353.95 326.92 355.45 C 324.65 356.66 322.21 357.54 319.94 358.76 C 325.24 361.34 331.15 363.33 335.08 368.02 C 337.53 370.56 338.89 373.86 340.05 377.13 C 331.64 372.40 322.49 368.60 312.75 367.97 C 319.44 371.15 325.97 376.64 326.31 384.63 C 316.06 379.95 305.76 374.58 294.44 373.18 C 300.30 375.61 305.94 379.47 308.27 385.65 C 298.34 383.11 288.32 380.33 277.99 380.24 C 285.02 381.17 290.26 386.48 297.14 387.77 C 296.20 388.01 294.32 388.47 293.38 388.71 C 301.08 390.06 308.21 393.87 313.43 399.72 C 310.62 399.00 307.84 398.23 305.05 397.47 C 311.64 401.75 318.82 405.85 323.31 412.50 C 315.76 411.14 308.35 409.14 300.88 407.45 C 303.80 409.37 306.82 411.14 309.67 413.18 C 300.61 412.69 292.16 409.02 284.18 404.99 C 286.84 407.43 289.47 409.93 291.93 412.60 C 285.50 410.85 279.57 407.69 274.16 403.85 C 275.05 405.39 275.93 406.94 276.81 408.51 C 270.76 406.90 265.51 403.33 261.03 399.04 C 261.88 400.69 262.72 402.34 263.56 404.01 C 260.68 403.27 257.82 402.45 255.06 401.36 C 268.93 422.23 277.01 446.29 284.51 470.02 C 287.39 479.60 290.00 489.26 292.35 498.98 C 295.81 513.46 298.68 528.08 300.65 542.84 C 302.17 554.87 303.33 567.04 302.42 579.18 C 305.15 566.87 309.69 555.06 314.82 543.58 C 321.59 528.58 329.27 513.99 337.66 499.83 C 345.44 486.76 353.73 473.98 362.87 461.81 C 370.23 452.29 377.83 442.75 387.24 435.14 C 384.11 435.45 380.97 435.63 377.84 435.72 C 378.50 434.99 379.83 433.52 380.49 432.79 C 375.84 434.86 370.86 436.17 365.74 436.29 C 366.48 435.60 367.97 434.22 368.71 433.53 C 363.40 435.16 357.92 436.18 352.36 436.26 C 354.88 434.89 357.46 433.62 360.07 432.41 C 352.55 433.80 344.84 434.58 337.22 433.50 C 340.01 432.62 342.84 431.93 345.67 431.24 C 339.07 430.75 332.44 430.90 325.84 430.48 C 328.93 428.66 332.14 427.03 335.54 425.85 C 338.25 424.98 341.01 424.27 343.76 423.52 C 341.69 423.40 339.61 423.27 337.55 423.14 C 343.22 420.04 349.71 418.87 356.12 419.29 C 355.50 419.00 354.26 418.43 353.63 418.14 C 359.26 417.58 364.73 416.12 370.34 415.42 C 361.74 414.63 353.11 414.39 344.48 414.39 C 348.09 410.34 353.37 408.85 358.55 408.13 C 348.81 407.22 339.16 409.13 329.55 410.39 C 332.28 404.58 338.54 402.31 344.44 401.23 C 341.92 401.00 339.41 400.76 336.89 400.66 C 331.19 400.48 325.56 401.49 319.97 402.47 C 324.69 395.77 333.27 393.97 340.96 393.74 C 338.84 392.35 336.76 390.91 334.73 389.39 C 339.53 389.10 344.48 388.73 349.16 390.09 C 350.41 390.54 351.73 390.85 353.07 390.83 C 352.47 389.63 351.41 388.80 350.29 388.15 C 348.99 387.28 347.81 386.26 346.65 385.22 C 348.58 385.66 350.49 386.17 352.38 386.78 C 359.27 388.98 365.66 392.58 371.21 397.21 C 369.94 395.18 368.68 393.12 367.47 391.06 C 370.50 392.63 373.44 394.40 376.26 396.34 C 376.61 396.06 377.32 395.50 377.67 395.22 C 381.83 396.00 385.73 397.69 389.34 399.88 C 384.61 394.71 378.77 390.79 373.42 386.33 C 378.24 385.64 383.03 386.63 387.41 388.64 C 381.08 383.38 373.47 380.13 366.16 376.51 C 371.54 373.99 377.56 374.70 382.94 376.80 C 380.15 374.49 377.32 372.19 374.14 370.45 C 371.27 368.88 368.18 367.77 365.22 366.40 C 369.79 365.21 374.72 364.79 379.23 366.50 C 381.46 367.23 383.58 368.26 385.67 369.34 C 385.46 367.48 384.37 365.22 386.28 363.91 C 390.54 366.25 394.08 369.73 396.50 373.94 C 396.13 371.00 395.88 368.04 395.71 365.08 C 397.68 367.92 399.50 370.89 400.80 374.11 C 402.29 378.27 402.91 382.67 403.29 387.06 C 403.82 384.60 404.41 382.15 405.07 379.72 C 406.79 384.92 407.28 390.47 406.31 395.87 C 407.37 394.31 408.44 392.75 409.54 391.21 C 409.85 394.60 410.11 397.99 410.50 401.37 C 412.02 396.35 413.89 391.39 417.13 387.20 C 416.86 389.85 416.51 392.50 416.12 395.13 C 419.21 388.52 423.27 382.26 429.02 377.64 C 427.96 380.17 426.84 382.67 425.74 385.18 C 428.91 381.85 431.96 378.43 435.21 375.18 C 436.38 374.09 437.63 373.08 438.97 372.21 C 437.65 377.92 435.40 383.35 433.15 388.75 C 434.17 387.71 436.21 385.63 437.23 384.59 C 436.09 390.23 433.79 395.64 429.90 399.93 L 432.59 399.07 C 431.19 400.93 429.85 402.83 428.33 404.61 C 426.68 406.20 424.85 407.59 423.03 408.99 C 424.10 408.81 426.26 408.45 427.33 408.27 C 426.71 408.95 425.47 410.32 424.85 411.01 C 425.80 410.87 427.69 410.60 428.64 410.46 C 427.60 411.61 426.57 412.76 425.54 413.91 C 430.23 412.08 435.22 411.17 440.26 411.06 C 438.66 412.10 437.07 413.15 435.47 414.19 C 442.60 412.77 450.03 412.98 456.96 415.27 C 454.25 415.88 451.53 416.44 448.80 416.94 C 453.96 418.07 458.44 420.98 462.06 424.77 C 460.01 424.93 457.97 425.10 455.92 425.25 C 456.71 426.07 457.52 426.89 458.29 427.74 C 462.44 432.11 464.47 438.06 464.20 444.05 C 460.31 438.44 455.74 433.22 449.84 429.67 C 452.99 434.03 455.17 439.22 454.08 444.71 C 448.93 438.84 443.89 432.75 437.44 428.23 C 440.05 431.68 442.21 435.52 442.69 439.91 C 437.15 436.03 432.00 431.39 425.59 428.97 C 429.18 431.46 433.21 433.27 436.59 436.09 C 435.41 436.28 433.04 436.65 431.85 436.83 C 436.41 439.49 440.96 442.32 444.49 446.31 C 445.07 446.96 446.23 448.25 446.81 448.90 C 444.09 447.96 441.41 446.98 438.72 445.97 C 447.63 452.24 454.28 461.25 458.51 471.22 C 455.53 468.57 452.64 465.81 449.72 463.10 C 452.38 468.03 454.55 473.28 455.36 478.86 C 455.63 480.80 455.83 482.75 456.05 484.71 C 453.95 482.46 451.90 480.17 449.87 477.86 C 450.22 481.58 450.49 485.34 450.17 489.08 C 449.65 493.63 447.36 497.75 443.79 500.61 C 444.25 491.65 443.28 482.63 440.45 474.09 C 439.99 478.66 440.02 483.99 436.39 487.39 C 435.36 488.16 434.17 489.57 432.77 488.96 C 432.55 486.88 432.57 484.78 432.53 482.70 C 432.40 475.06 431.47 467.45 429.58 460.06 C 429.47 465.28 428.95 470.85 425.13 474.81 C 423.29 466.52 421.41 458.22 418.27 450.32 C 418.77 455.49 418.87 460.88 416.39 465.62 C 413.77 457.86 412.54 449.68 409.43 442.07 C 409.04 447.54 409.85 452.97 410.69 458.36 C 409.57 457.13 408.49 455.92 407.40 454.69 C 408.85 459.82 409.01 465.23 407.80 470.43 C 407.51 469.33 406.94 467.12 406.65 466.02 C 406.45 471.30 405.30 476.75 401.73 480.85 C 401.24 481.42 400.25 482.56 399.75 483.13 C 399.99 480.98 400.26 478.86 400.53 476.74 C 397.78 482.01 394.63 487.18 390.04 491.07 C 390.26 485.06 390.95 479.08 391.61 473.10 C 390.36 475.55 389.06 477.97 387.69 480.36 C 387.65 478.17 387.62 475.99 387.71 473.82 C 388.54 469.48 389.74 465.24 391.17 461.06 C 389.43 463.01 387.70 464.95 385.91 466.84 C 386.82 461.88 388.63 457.14 391.23 452.83 C 389.98 453.57 388.73 454.31 387.48 455.06 C 388.44 450.44 390.67 446.26 393.44 442.50 C 392.67 443.05 391.12 444.16 390.35 444.72 C 390.13 444.05 389.67 442.73 389.45 442.07 C 379.28 452.59 370.69 464.51 362.83 476.82 C 356.42 486.93 350.47 497.33 344.99 507.97 C 339.81 518.05 335.01 528.34 330.76 538.85 C 327.20 547.64 323.97 556.58 321.42 565.72 C 319.96 570.91 318.79 576.18 317.84 581.49 C 320.03 582.45 322.40 583.18 324.29 584.71 C 326.61 587.11 327.37 590.81 330.35 592.63 C 336.13 596.30 343.33 595.95 349.88 595.34 C 353.50 595.11 357.76 594.66 360.69 597.29 C 363.90 600.35 365.41 605.57 370.19 606.69 C 376.17 607.68 382.28 607.87 388.20 609.34 C 395.85 610.65 403.29 613.14 411.00 614.09 C 421.90 613.96 432.80 614.30 443.71 614.37 C 443.58 614.50 443.32 614.75 443.18 614.88 C 434.56 614.24 425.82 614.19 417.22 615.23 C 415.47 615.12 413.75 614.84 412.02 614.66 C 397.38 615.44 382.69 614.78 368.03 615.00 C 334.69 615.00 301.35 615.00 268.02 615.00 C 253.94 614.87 239.85 615.26 225.78 614.79 C 231.58 611.03 237.88 607.34 245.00 607.20 C 247.76 607.26 250.50 605.81 251.31 603.04 C 252.79 599.96 254.38 596.07 258.12 595.32 C 263.86 594.77 270.00 597.11 275.46 594.46 C 279.14 592.43 278.85 587.38 281.76 584.68 C 283.97 582.93 286.76 582.20 289.35 581.22 C 289.60 576.13 289.75 571.02 289.65 565.93 C 289.48 556.31 288.67 546.72 287.53 537.18 C 286.62 529.43 285.40 521.73 284.05 514.05 C 282.22 503.96 280.07 493.93 277.59 483.99 C 270.74 457.10 262.45 430.23 248.72 405.97 C 248.14 407.91 247.55 409.86 246.90 411.79 C 245.65 410.27 244.42 408.77 243.22 407.23 C 245.71 413.07 246.85 419.47 246.08 425.81 C 245.02 424.47 243.97 423.12 242.92 421.79 C 244.07 428.04 244.97 434.46 243.93 440.80 C 242.31 437.89 241.24 434.73 240.26 431.57 C 240.22 440.45 240.78 449.61 237.61 458.10 C 236.95 454.64 236.44 451.15 235.76 447.70 C 234.39 455.26 233.36 462.90 231.69 470.41 C 227.55 463.63 226.34 455.61 225.03 447.91 C 224.55 450.64 224.11 453.39 223.57 456.12 C 220.47 448.55 219.38 440.06 221.93 432.17 C 221.19 433.34 219.71 435.69 218.97 436.87 C 219.51 430.17 221.03 423.43 224.77 417.76 C 223.15 418.88 221.50 419.96 219.85 421.05 C 222.12 414.72 225.20 408.68 226.01 401.90 C 220.62 410.13 216.14 418.89 211.59 427.60 C 209.74 421.16 211.59 414.61 214.10 408.65 C 207.86 416.31 203.61 425.31 199.12 434.04 C 196.15 428.20 197.00 421.59 198.68 415.53 C 192.52 425.01 189.79 436.15 186.55 446.85 C 180.77 441.39 180.99 432.86 182.92 425.74 C 177.11 433.47 173.86 442.74 171.96 452.14 C 166.11 444.11 167.80 433.27 171.80 424.83 C 168.95 426.14 166.08 427.43 163.19 428.66 C 165.59 421.18 169.99 414.39 176.07 409.38 C 172.04 410.92 167.99 412.44 163.90 413.85 C 171.51 405.41 181.46 399.28 192.27 395.88 C 189.08 395.85 185.90 395.87 182.71 395.86 C 188.84 392.15 195.57 389.58 202.61 388.31 C 201.09 387.37 199.48 386.57 197.88 385.78 C 202.36 383.14 207.75 383.33 212.39 381.16 C 204.57 381.85 197.39 385.29 190.06 387.82 C 191.41 382.96 195.30 379.71 199.24 376.93 C 190.85 379.43 183.49 384.28 176.07 388.77 C 175.82 382.65 180.05 377.91 184.78 374.66 C 177.44 376.16 170.85 379.91 164.83 384.24 C 165.94 376.56 172.25 371.13 179.06 368.28 C 176.91 367.60 174.76 366.89 172.63 366.14 C 177.40 362.53 183.57 361.66 189.38 361.52 C 186.42 360.38 183.47 359.19 180.59 357.84 C 189.26 356.90 197.96 358.70 205.93 362.07 C 204.16 360.52 202.39 358.96 200.68 357.35 C 206.52 358.38 212.13 360.58 216.90 364.13 C 216.00 362.49 215.11 360.85 214.24 359.20 C 215.53 359.64 216.82 360.09 218.11 360.54 C 217.55 359.37 216.99 358.20 216.43 357.03 C 217.96 357.57 219.50 358.12 221.03 358.67 C 217.24 354.76 214.67 349.91 212.76 344.86 C 213.60 345.50 215.30 346.79 216.15 347.44 C 212.71 341.91 211.30 335.34 212.00 328.88 C 213.30 330.88 214.54 332.94 215.73 335.01 C 214.30 328.31 213.09 321.52 213.23 314.64 C 217.96 319.26 221.03 325.18 225.01 330.39 C 224.52 327.54 223.88 324.71 223.36 321.87 C 229.15 327.86 231.72 336.04 233.20 344.05 C 233.53 340.79 233.89 337.54 234.50 334.33 C 236.91 339.96 237.83 346.10 237.41 352.20 C 239.63 348.81 240.18 344.75 241.64 341.04 C 243.48 342.01 243.49 344.72 244.42 346.47 C 244.74 339.72 247.04 333.25 250.49 327.49 C 250.69 329.78 250.80 332.07 251.01 334.36 C 254.36 325.20 259.20 316.43 266.51 309.82 C 265.31 313.42 264.05 317.00 262.82 320.59 M 269.12 326.08 C 267.74 326.79 267.68 327.46 268.93 328.10 C 270.31 327.39 270.37 326.71 269.12 326.08 M 242.92 384.98 C 239.86 380.83 238.75 375.74 236.96 371.01 C 232.77 360.07 228.43 349.14 223.00 338.75 C 228.24 353.49 234.26 367.95 239.78 382.58 C 231.47 376.73 222.08 372.30 212.07 370.30 C 203.82 368.42 195.30 369.32 186.92 369.49 C 190.29 369.70 193.67 369.73 197.04 369.72 C 213.12 369.43 229.14 375.57 241.20 386.13 C 237.84 386.91 234.40 387.24 231.04 388.04 C 211.55 392.42 193.40 403.34 181.04 419.12 C 183.96 416.34 186.65 413.32 189.72 410.69 C 204.23 397.90 222.95 389.59 242.36 388.64 C 236.64 406.47 231.39 424.73 230.38 443.52 C 233.78 425.49 237.44 407.39 243.96 390.18 C 262.54 391.02 280.53 396.20 298.42 400.84 C 281.56 394.18 263.46 391.48 245.66 388.53 C 262.21 371.22 286.42 362.05 310.22 362.54 C 286.03 360.27 261.84 370.31 244.14 386.51 C 245.92 365.55 253.22 344.65 267.33 328.79 C 252.01 343.26 245.12 364.48 242.92 384.98 M 271.61 356.67 C 271.31 357.42 270.73 358.92 270.44 359.67 C 273.12 357.10 276.13 354.92 279.17 352.81 C 276.57 353.94 274.07 355.28 271.61 356.67 M 389.02 376.97 C 393.65 383.95 397.17 391.74 398.30 400.10 C 399.69 407.10 398.79 414.29 399.04 421.31 C 400.43 420.77 399.76 418.23 400.13 416.94 C 401.19 402.91 398.21 387.99 389.02 376.97 M 425.93 391.92 C 420.30 398.64 415.06 405.68 409.74 412.64 C 406.25 417.06 403.51 422.10 399.20 425.82 C 399.15 425.07 399.04 423.57 398.99 422.82 C 398.21 423.62 397.77 424.87 397.66 426.58 C 387.17 412.42 371.24 402.18 353.85 399.11 C 370.63 403.44 386.65 413.05 396.19 427.80 C 380.78 426.48 365.29 425.57 349.82 426.50 C 365.58 427.15 381.49 426.29 397.07 429.31 C 398.98 442.98 397.67 456.78 397.36 470.49 C 400.03 456.70 399.68 442.53 398.80 428.59 C 419.00 433.94 434.81 450.16 443.01 468.97 C 435.96 449.35 419.61 433.36 399.81 426.77 C 407.03 424.41 414.21 421.57 421.88 421.13 C 431.17 420.05 440.35 422.22 449.19 424.83 C 434.44 418.38 417.36 418.78 402.43 424.40 C 410.44 413.71 418.66 403.13 425.93 391.92 M 378.28 398.00 C 378.29 399.54 380.09 401.71 381.70 401.60 C 382.14 399.87 379.99 397.67 378.28 398.00 Z" />
<path fill="#033b5b" opacity="1.00" d=" M 776.13 323.58 C 782.38 325.77 788.03 329.51 792.21 334.67 C 791.06 331.36 789.87 328.06 788.89 324.70 C 796.08 331.28 801.05 340.03 803.68 349.37 C 803.63 346.75 803.62 344.11 803.78 341.50 C 807.47 346.61 809.25 352.89 809.68 359.13 C 810.62 357.70 810.64 354.48 812.36 354.29 C 813.74 357.90 814.50 361.74 816.41 365.14 C 815.96 359.23 816.64 353.18 819.25 347.80 C 819.69 350.88 820.05 353.97 820.40 357.07 C 821.68 349.42 824.20 341.62 829.73 335.95 C 829.17 338.85 828.51 341.72 827.95 344.62 C 831.48 339.25 834.86 333.73 839.25 328.99 C 839.50 335.47 838.25 341.86 837.05 348.20 C 838.17 346.31 839.31 344.43 840.56 342.62 C 841.07 349.02 839.76 355.61 835.99 360.91 C 836.90 360.13 838.72 358.57 839.64 357.79 C 837.97 362.67 835.44 367.24 831.83 370.96 C 833.32 370.38 834.82 369.81 836.34 369.26 C 835.70 370.42 835.07 371.58 834.45 372.75 C 835.43 372.40 837.39 371.70 838.38 371.35 C 837.53 372.91 836.67 374.47 835.82 376.03 C 840.32 372.70 845.60 370.62 851.10 369.66 C 849.60 371.13 848.09 372.56 846.59 374.02 C 854.05 370.85 862.28 369.08 870.39 370.24 C 867.53 371.41 864.64 372.51 861.75 373.60 C 867.50 373.50 873.15 374.94 878.18 377.72 C 876.13 378.53 874.03 379.24 871.94 379.94 C 878.22 382.91 884.26 387.90 885.25 395.20 C 879.48 390.91 873.04 387.47 865.97 385.94 C 870.68 388.92 874.79 393.52 874.58 399.46 C 867.37 395.08 860.18 390.38 851.99 388.05 C 856.13 390.46 859.91 393.79 861.28 398.56 C 854.42 396.09 847.63 393.06 840.34 392.17 C 844.71 394.27 849.70 394.41 854.13 396.41 C 852.50 397.24 850.85 398.04 849.24 398.88 C 855.85 400.34 862.40 402.41 868.08 406.21 C 864.91 406.23 861.74 406.15 858.58 406.17 C 869.13 409.03 878.64 415.12 886.03 423.13 C 882.19 421.95 878.45 420.49 874.70 419.08 C 880.35 423.86 884.59 430.20 886.74 437.29 C 884.02 436.15 881.34 434.93 878.68 433.69 C 882.51 441.85 883.84 452.02 878.52 459.86 C 876.73 450.91 873.72 442.03 868.13 434.70 C 869.89 441.44 870.06 449.46 864.61 454.63 C 861.57 444.42 858.96 433.81 853.05 424.80 C 854.75 430.53 855.58 436.87 852.62 442.35 C 848.36 433.92 844.21 425.29 838.18 417.95 C 840.87 423.66 842.65 430.09 840.88 436.36 C 836.53 428.05 832.28 419.65 827.07 411.83 C 828.02 418.26 830.82 424.08 833.04 430.12 C 831.42 429.06 829.82 427.98 828.25 426.87 C 831.76 431.96 833.06 438.07 833.92 444.09 C 833.37 443.78 832.27 443.17 831.72 442.86 C 833.26 449.79 832.19 457.02 829.33 463.46 C 828.93 460.89 828.59 458.32 828.21 455.76 C 826.75 463.03 825.64 470.58 821.81 477.08 C 820.15 470.01 819.44 462.77 817.79 455.71 C 817.25 458.84 816.79 461.99 816.19 465.12 C 813.19 457.15 813.47 448.48 813.83 440.11 C 812.65 443.20 811.51 446.30 810.10 449.30 C 809.30 443.14 809.91 436.93 811.11 430.88 C 810.09 432.12 809.08 433.37 808.06 434.62 C 807.40 428.62 808.47 422.59 810.80 417.05 C 809.62 418.50 808.42 419.92 807.21 421.34 C 806.67 419.49 806.14 417.63 805.64 415.78 C 794.78 434.70 787.75 455.53 781.77 476.42 C 779.43 484.69 777.33 493.03 775.49 501.43 C 774.14 507.55 772.91 513.71 771.83 519.89 C 770.76 525.97 769.81 532.09 769.04 538.22 C 767.81 548.04 766.95 557.91 766.76 567.80 C 766.68 571.99 766.78 576.18 766.99 580.36 C 771.09 581.15 775.41 581.78 779.00 584.08 C 782.89 586.47 782.09 592.60 786.40 594.60 C 791.97 597.12 798.12 594.59 803.91 595.42 C 808.34 596.87 809.37 602.00 811.62 605.52 C 813.34 607.14 815.84 607.07 818.05 607.35 C 824.67 607.77 830.51 611.36 835.90 614.94 C 827.71 615.07 819.53 614.97 811.35 615.00 C 787.15 615.03 762.96 614.94 738.76 615.05 C 710.34 614.23 681.91 613.99 653.47 613.83 C 662.23 611.68 671.03 609.64 679.93 608.13 C 683.87 607.38 687.95 607.56 691.85 606.56 C 697.76 604.76 698.43 596.28 704.88 595.41 C 712.86 594.58 721.29 597.38 728.94 593.84 C 734.40 592.01 735.18 585.38 739.89 582.56 L 739.87 581.97 C 738.39 572.36 735.48 563.04 732.31 553.88 C 728.50 543.06 723.96 532.52 719.00 522.19 C 714.20 512.17 708.96 502.36 703.30 492.80 C 698.65 484.91 693.69 477.21 688.35 469.78 C 683.33 462.76 677.88 456.04 671.84 449.88 C 671.78 450.54 671.65 451.88 671.59 452.55 C 670.80 452.07 669.22 451.11 668.42 450.64 C 670.96 454.17 672.94 458.07 673.99 462.31 C 673.11 461.82 671.35 460.84 670.47 460.35 C 672.16 463.48 673.78 466.70 674.63 470.17 C 674.80 470.99 675.14 472.63 675.31 473.45 C 673.55 471.61 671.85 469.70 670.19 467.76 C 672.57 473.71 674.12 480.02 673.79 486.47 C 672.48 484.22 671.27 481.93 670.05 479.64 C 670.45 483.78 670.92 487.92 671.25 492.08 C 671.34 493.55 671.43 495.03 671.50 496.51 C 669.10 494.33 666.84 491.97 665.10 489.23 C 663.83 487.19 662.72 485.06 661.66 482.91 C 661.69 484.53 661.71 486.14 661.67 487.78 C 657.05 484.34 656.05 478.21 655.63 472.86 C 655.22 474.24 654.78 475.61 654.36 477.00 C 653.67 472.04 653.70 466.99 654.83 462.10 C 654.09 462.95 652.62 464.65 651.89 465.50 C 652.61 460.58 653.48 455.62 652.95 450.63 C 650.03 457.71 648.79 465.31 646.55 472.60 C 644.16 467.95 644.14 462.69 644.78 457.62 C 641.77 465.24 639.93 473.22 638.15 481.20 C 634.57 477.28 633.94 471.93 634.16 466.85 C 632.22 473.45 631.43 480.31 631.21 487.17 C 631.11 489.92 630.99 492.67 630.82 495.42 C 628.88 493.98 626.61 492.70 625.55 490.43 C 624.04 487.34 623.98 483.83 623.52 480.49 C 621.05 488.59 620.04 497.04 620.46 505.49 C 617.62 503.25 615.47 500.19 614.82 496.59 C 613.99 492.41 614.28 488.15 614.72 483.95 C 612.81 486.17 610.86 488.35 608.88 490.51 C 609.06 488.62 609.25 486.75 609.51 484.88 C 610.28 479.54 612.37 474.51 614.97 469.83 C 612.19 472.49 609.40 475.13 606.51 477.67 C 610.47 468.35 616.67 459.96 624.87 453.94 C 623.06 454.58 619.44 455.86 617.63 456.50 L 619.94 453.89 C 623.28 450.20 627.54 447.56 631.79 445.05 C 630.59 444.88 628.19 444.53 626.99 444.36 C 630.33 441.93 634.05 440.09 637.46 437.76 C 631.52 440.07 626.67 444.30 621.56 447.99 C 621.93 443.70 624.10 439.97 626.83 436.76 C 620.51 440.99 615.64 446.86 610.74 452.58 C 609.70 447.36 611.76 442.43 614.66 438.22 C 609.14 441.73 604.79 446.63 601.04 451.92 C 600.69 445.09 603.83 438.69 608.86 434.20 C 606.99 433.92 605.12 433.65 603.29 433.20 C 606.88 430.00 610.93 427.23 615.70 426.16 C 613.08 425.70 610.48 425.13 607.90 424.51 C 614.80 422.42 622.15 422.20 629.17 423.82 C 627.36 422.80 625.56 421.76 623.79 420.67 C 628.57 420.70 633.30 421.55 637.76 423.28 C 636.77 422.20 635.81 421.14 634.84 420.07 C 635.70 420.16 637.42 420.35 638.28 420.45 C 637.72 419.83 636.60 418.60 636.05 417.99 C 636.90 418.10 638.60 418.31 639.45 418.41 C 637.18 416.39 634.93 414.33 633.06 411.93 C 632.54 411.25 631.49 409.89 630.97 409.21 C 631.66 409.40 633.05 409.79 633.74 409.99 C 629.86 406.06 627.86 400.82 626.69 395.51 C 627.61 396.40 629.46 398.17 630.39 399.06 C 628.26 393.93 626.16 388.75 624.99 383.30 C 629.50 387.21 633.47 391.67 637.58 395.98 C 636.57 393.65 635.53 391.30 634.57 388.97 C 639.98 393.27 643.71 399.17 646.70 405.31 C 646.35 402.85 646.03 400.39 645.77 397.93 C 648.80 401.94 650.71 406.63 651.99 411.46 C 652.44 408.26 652.73 405.05 653.11 401.85 C 654.02 403.22 654.95 404.61 655.87 406.01 C 655.22 400.90 655.67 395.74 657.18 390.82 C 657.86 393.20 658.53 395.60 659.14 398.01 C 659.21 392.20 660.40 386.36 663.29 381.29 C 664.17 379.81 665.14 378.40 666.12 376.99 C 665.94 379.72 665.70 382.45 665.37 385.17 C 667.99 380.79 671.94 377.44 676.51 375.21 C 676.19 377.12 675.86 379.03 675.54 380.94 C 681.40 377.57 688.41 376.15 694.97 378.24 C 689.05 380.60 683.28 383.48 678.53 387.82 C 683.66 386.15 689.22 385.51 694.28 387.84 C 687.43 391.03 680.46 394.18 674.50 398.91 C 678.66 397.38 683.05 396.54 687.49 397.09 C 682.34 401.13 676.92 404.89 672.45 409.73 C 675.75 407.92 679.18 406.17 683.01 405.96 C 686.77 405.76 689.76 403.28 692.95 401.58 C 691.82 403.49 690.67 405.39 689.53 407.29 C 696.29 401.65 704.43 397.90 712.99 395.95 C 710.55 397.95 708.08 399.89 705.57 401.79 C 711.54 399.93 717.83 399.40 724.05 400.00 C 722.13 401.40 720.19 402.77 718.25 404.12 C 723.38 404.48 728.63 405.25 733.19 407.81 C 735.05 408.95 736.41 410.70 737.71 412.41 C 730.17 410.88 722.43 410.23 714.78 411.28 C 720.38 412.29 726.27 414.46 728.95 419.92 C 719.89 418.80 710.84 417.15 701.67 417.65 C 706.51 418.63 711.36 420.17 714.96 423.74 C 706.89 423.96 698.78 423.68 690.78 424.98 C 696.00 425.53 701.09 426.87 706.33 427.30 C 705.67 427.58 704.36 428.14 703.70 428.43 C 709.79 428.02 715.94 429.13 721.34 432.07 C 719.14 432.18 716.98 432.29 714.81 432.38 C 716.69 432.82 718.59 433.28 720.49 433.72 C 724.60 435.01 728.59 436.73 732.28 438.99 C 726.04 439.47 719.78 439.42 713.54 439.55 C 716.24 440.31 718.95 441.07 721.65 441.91 C 714.57 442.92 707.45 442.13 700.44 441.08 C 702.77 442.21 705.12 443.35 707.42 444.58 C 702.09 444.44 696.81 443.52 691.74 441.89 C 692.42 442.56 693.78 443.90 694.45 444.57 C 689.49 444.36 684.63 443.16 680.16 441.01 C 681.18 442.00 682.19 442.99 683.22 444.01 C 680.16 443.94 677.12 443.78 674.10 443.42 C 685.19 452.53 693.89 464.10 702.30 475.63 C 711.11 488.03 719.14 500.98 726.61 514.23 C 737.98 534.94 748.90 556.30 754.48 579.40 C 753.68 557.78 757.28 536.30 761.68 515.21 C 764.45 502.40 767.69 489.69 771.48 477.14 C 772.76 472.93 774.08 468.72 775.47 464.54 C 781.82 446.20 788.62 427.68 799.55 411.51 C 796.89 412.40 794.20 413.17 791.50 413.88 C 792.34 412.23 793.23 410.59 794.12 408.96 C 789.89 413.23 784.73 416.52 778.96 418.27 C 779.70 416.81 780.47 415.37 781.24 413.92 C 776.16 417.54 770.57 420.40 764.57 422.11 C 766.89 419.61 769.34 417.25 771.86 414.96 C 764.24 418.75 756.20 422.09 747.62 422.73 C 750.42 420.75 753.34 418.96 756.26 417.16 C 752.27 418.08 748.29 419.03 744.32 419.98 C 741.02 420.75 737.72 421.45 734.40 422.04 C 736.29 419.81 738.29 417.67 740.52 415.77 C 743.95 412.87 747.82 410.56 751.50 407.99 C 749.03 408.56 746.60 409.22 744.15 409.83 C 749.21 404.43 755.86 400.47 763.28 399.53 C 762.39 399.28 760.61 398.80 759.72 398.55 C 765.95 397.11 770.95 392.80 777.16 391.26 C 767.58 391.66 758.28 394.14 749.03 396.47 C 751.31 390.65 756.60 387.09 762.07 384.61 C 751.38 386.11 741.64 391.09 731.94 395.54 C 732.32 388.07 738.32 382.85 744.59 379.79 C 735.44 380.22 727.03 384.11 719.00 388.20 C 721.36 379.11 729.92 373.78 738.33 371.08 C 735.75 369.88 733.17 368.71 730.62 367.51 C 737.33 364.26 745.02 363.46 752.35 364.65 C 748.77 362.73 745.19 360.83 741.73 358.71 C 752.53 358.95 763.20 362.18 772.30 368.01 C 770.25 365.65 768.14 363.36 766.08 361.02 C 769.53 362.12 772.88 363.53 776.17 365.08 C 781.56 363.01 787.18 365.14 792.26 367.06 C 785.76 361.86 778.37 358.00 771.04 354.14 C 775.96 351.62 781.51 352.50 786.61 353.89 C 778.71 348.69 769.49 346.12 760.56 343.31 C 764.86 338.11 772.42 338.79 778.26 340.47 C 771.80 335.20 763.80 332.65 755.90 330.47 C 763.10 326.12 772.04 327.35 779.27 330.95 C 778.18 328.51 777.13 326.05 776.13 323.58 M 785.14 339.77 C 800.52 354.85 808.14 376.18 809.98 397.30 C 793.32 382.10 770.66 372.58 747.90 374.51 C 757.40 374.55 766.93 375.78 775.94 378.90 C 788.00 383.12 799.77 389.53 808.24 399.27 C 791.58 401.98 774.70 404.66 758.85 410.69 C 775.74 406.53 792.64 401.54 810.14 400.77 C 816.11 417.34 820.47 434.57 822.65 452.06 C 823.05 445.00 821.69 438.02 820.33 431.14 C 818.07 420.36 815.12 409.73 811.64 399.28 C 832.06 400.24 851.19 409.98 865.86 423.88 C 852.37 408.38 832.37 399.31 812.12 397.01 C 816.37 394.21 820.27 390.87 824.87 388.62 C 837.09 382.12 851.32 380.00 864.99 381.66 C 847.36 378.19 828.88 383.17 814.27 393.31 C 819.64 378.80 825.58 364.51 830.86 349.96 C 824.51 362.94 818.82 376.27 814.21 389.97 C 813.48 392.11 812.28 394.03 811.14 395.96 C 809.02 375.15 801.42 353.69 785.14 339.77 M 777.56 365.68 C 780.10 367.71 782.72 369.67 785.06 371.94 C 784.67 370.96 784.29 369.97 783.92 369.00 C 781.83 367.83 779.72 366.70 777.56 365.68 M 662.84 434.69 C 659.10 431.48 656.64 427.17 653.67 423.31 C 648.50 416.47 643.35 409.59 637.88 402.97 C 644.55 413.52 652.33 423.33 659.79 433.32 C 645.45 427.83 629.02 427.57 614.90 433.86 C 622.73 431.50 630.81 429.41 639.07 430.01 C 647.14 430.19 654.76 432.96 662.29 435.58 C 644.15 441.37 629.37 455.73 622.06 473.18 C 624.48 469.28 626.54 465.15 629.29 461.46 C 637.49 449.93 649.45 440.93 663.19 437.22 C 662.39 450.57 661.86 464.20 664.73 477.35 C 664.04 464.23 663.13 451.01 664.81 437.92 C 679.46 434.97 694.44 436.15 709.27 435.54 C 694.75 434.82 680.19 435.07 665.72 436.49 C 674.74 422.32 690.17 413.28 706.17 409.17 C 689.47 412.07 674.23 421.90 664.12 435.44 C 661.27 419.68 662.69 402.41 671.98 388.91 C 661.64 401.61 660.34 419.09 662.84 434.69 M 679.07 411.97 C 680.97 410.48 682.62 408.70 684.11 406.82 C 682.08 408.15 680.08 409.68 679.07 411.97 M 865.79 423.77 C 867.34 425.87 869.16 427.75 870.97 429.64 C 869.42 427.53 867.78 425.47 865.79 423.77 Z" />
</g>
<g id="#f15929ff">
<path fill="#f15929" opacity="1.00" d=" M 490.02 325.18 C 531.66 318.89 574.70 322.26 614.89 334.85 C 649.69 345.71 682.36 363.38 710.41 386.67 C 705.04 387.14 699.54 386.45 694.28 387.84 C 689.22 385.51 683.66 386.15 678.53 387.82 C 683.28 383.48 689.05 380.60 694.97 378.24 C 688.41 376.15 681.40 377.57 675.54 380.94 C 675.86 379.03 676.19 377.12 676.51 375.21 C 671.94 377.44 667.99 380.79 665.37 385.17 C 665.70 382.45 665.94 379.72 666.12 376.99 C 665.14 378.40 664.17 379.81 663.29 381.29 C 654.17 381.56 645.16 379.66 636.04 380.15 C 627.35 380.61 618.76 378.59 610.07 379.14 C 601.68 379.62 593.39 377.60 585.00 378.12 C 576.31 378.75 567.73 376.67 559.04 377.13 C 553.96 377.32 548.88 377.09 543.83 376.50 C 535.69 375.56 527.48 376.80 519.36 375.63 C 510.73 374.44 502.00 375.80 493.37 374.61 C 484.72 373.45 475.96 374.86 467.31 373.62 C 457.90 372.33 448.33 374.14 438.97 372.21 C 437.63 373.08 436.38 374.09 435.21 375.18 C 423.70 375.45 412.30 373.27 400.80 374.11 C 399.50 370.89 397.68 367.92 395.71 365.08 C 395.88 368.04 396.13 371.00 396.50 373.94 C 394.08 369.73 390.54 366.25 386.28 363.91 C 384.37 365.22 385.46 367.48 385.67 369.34 C 383.58 368.26 381.46 367.23 379.23 366.50 C 380.18 366.17 381.11 365.78 382.01 365.33 C 414.73 344.70 451.77 330.93 490.02 325.18 Z" />
<path fill="#f15929" opacity="1.00" d=" M 443.71 614.37 C 463.79 614.31 483.88 614.00 503.97 614.16 C 553.80 614.69 603.64 614.06 653.47 613.83 C 681.91 613.99 710.34 614.23 738.76 615.05 C 741.66 615.32 744.55 615.71 747.46 616.00 C 750.15 616.50 752.80 617.27 755.38 618.24 C 754.04 620.39 751.41 620.76 749.16 621.29 C 741.19 622.89 733.05 623.56 724.93 623.38 C 710.95 623.50 696.98 623.02 683.01 622.77 C 651.99 622.40 620.98 623.33 589.96 623.25 C 564.99 623.18 540.01 623.40 515.03 623.12 C 492.38 623.18 469.72 622.85 447.09 623.91 C 432.97 624.75 418.81 622.87 404.71 624.32 C 396.15 623.66 387.56 624.11 378.99 624.04 C 360.00 623.97 341.00 624.02 322.01 624.00 C 314.50 623.88 306.95 624.47 299.49 623.32 C 325.88 620.07 352.46 618.85 378.94 616.60 C 389.30 615.97 399.67 615.63 410.05 615.28 C 412.43 615.16 414.88 616.06 417.22 615.23 C 425.82 614.19 434.56 614.24 443.18 614.88 C 443.32 614.75 443.58 614.50 443.71 614.37 Z" />
</g>
<g id="#022b42ba">
<path fill="#022b42" opacity="0.73" d=" M 269.12 326.08 C 270.37 326.71 270.31 327.39 268.93 328.10 C 267.68 327.46 267.74 326.79 269.12 326.08 Z" />
</g>
<g id="#f1672aff">
<path fill="#f1672a" opacity="1.00" d=" M 352.38 386.78 C 359.36 380.99 366.63 375.54 374.14 370.45 C 377.32 372.19 380.15 374.49 382.94 376.80 C 377.56 374.70 371.54 373.99 366.16 376.51 C 373.47 380.13 381.08 383.38 387.41 388.64 C 383.03 386.63 378.24 385.64 373.42 386.33 C 378.77 390.79 384.61 394.71 389.34 399.88 C 385.73 397.69 381.83 396.00 377.67 395.22 C 377.32 395.50 376.61 396.06 376.26 396.34 C 373.44 394.40 370.50 392.63 367.47 391.06 C 368.68 393.12 369.94 395.18 371.21 397.21 C 365.66 392.58 359.27 388.98 352.38 386.78 Z" />
<path fill="#f1672a" opacity="1.00" d=" M 438.97 372.21 C 448.33 374.14 457.90 372.33 467.31 373.62 C 475.96 374.86 484.72 373.45 493.37 374.61 C 502.00 375.80 510.73 374.44 519.36 375.63 C 527.48 376.80 535.69 375.56 543.83 376.50 C 548.88 377.09 553.96 377.32 559.04 377.13 C 567.73 376.67 576.31 378.75 585.00 378.12 C 593.39 377.60 601.68 379.62 610.07 379.14 C 618.76 378.59 627.35 380.61 636.04 380.15 C 645.16 379.66 654.17 381.56 663.29 381.29 C 660.40 386.36 659.21 392.20 659.14 398.01 C 658.53 395.60 657.86 393.20 657.18 390.82 C 655.67 395.74 655.22 400.90 655.87 406.01 C 654.95 404.61 654.02 403.22 653.11 401.85 C 652.73 405.05 652.44 408.26 651.99 411.46 C 650.71 406.63 648.80 401.94 645.77 397.93 C 646.03 400.39 646.35 402.85 646.70 405.31 C 643.71 399.17 639.98 393.27 634.57 388.97 C 635.53 391.30 636.57 393.65 637.58 395.98 C 633.47 391.67 629.50 387.21 624.99 383.30 C 626.16 388.75 628.26 393.93 630.39 399.06 C 629.46 398.17 627.61 396.40 626.69 395.51 C 627.86 400.82 629.86 406.06 633.74 409.99 C 633.05 409.79 631.66 409.40 630.97 409.21 C 631.49 409.89 632.54 411.25 633.06 411.93 C 624.57 411.71 616.05 412.45 607.61 411.39 C 598.98 410.24 590.25 411.60 581.63 410.41 C 572.98 409.24 564.22 410.59 555.57 409.42 C 546.93 408.27 538.20 409.61 529.57 408.38 C 520.94 407.19 512.21 408.70 503.59 407.41 C 494.99 406.18 486.28 407.62 477.67 406.41 C 469.03 405.21 460.28 406.65 451.64 405.44 C 443.90 404.38 436.09 405.27 428.33 404.61 C 429.85 402.83 431.19 400.93 432.59 399.07 L 429.90 399.93 C 433.79 395.64 436.09 390.23 437.23 384.59 C 436.21 385.63 434.17 387.71 433.15 388.75 C 435.40 383.35 437.65 377.92 438.97 372.21 Z" />
<path fill="#f1672a" opacity="1.00" d=" M 350.29 388.15 C 351.41 388.80 352.47 389.63 353.07 390.83 C 351.73 390.85 350.41 390.54 349.16 390.09 C 349.44 389.61 350.01 388.64 350.29 388.15 Z" />
</g>
<g id="#f16229ff">
<path fill="#f16229" opacity="1.00" d=" M 400.80 374.11 C 412.30 373.27 423.70 375.45 435.21 375.18 C 431.96 378.43 428.91 381.85 425.74 385.18 C 426.84 382.67 427.96 380.17 429.02 377.64 C 423.27 382.26 419.21 388.52 416.12 395.13 C 416.51 392.50 416.86 389.85 417.13 387.20 C 413.89 391.39 412.02 396.35 410.50 401.37 C 410.11 397.99 409.85 394.60 409.54 391.21 C 408.44 392.75 407.37 394.31 406.31 395.87 C 407.28 390.47 406.79 384.92 405.07 379.72 C 404.41 382.15 403.82 384.60 403.29 387.06 C 402.91 382.67 402.29 378.27 400.80 374.11 Z" />
</g>
<g id="#f3732dff">
<path fill="#f3732d" opacity="1.00" d=" M 389.02 376.97 C 398.21 387.99 401.19 402.91 400.13 416.94 C 399.76 418.23 400.43 420.77 399.04 421.31 C 398.79 414.29 399.69 407.10 398.30 400.10 C 397.17 391.74 393.65 383.95 389.02 376.97 Z" />
<path fill="#f3732d" opacity="1.00" d=" M 257.28 651.02 C 258.05 650.63 259.60 649.87 260.37 649.48 C 268.23 650.49 276.16 649.91 284.05 650.02 C 299.03 650.08 314.02 650.01 329.00 650.03 C 337.39 650.08 345.80 649.67 354.17 650.52 C 360.39 651.68 366.67 650.59 372.93 650.61 C 428.98 651.24 485.02 652.41 541.07 652.43 C 554.70 653.01 568.32 654.11 581.98 654.01 C 605.00 653.88 628.01 653.51 651.02 653.10 C 683.34 652.58 715.70 651.33 748.01 653.08 C 756.15 653.67 764.80 652.88 772.30 656.71 C 775.32 658.22 778.78 659.37 780.95 662.12 C 780.86 663.51 779.43 664.86 778.01 664.57 C 765.77 663.57 753.42 663.88 741.15 664.40 C 689.78 664.01 638.41 662.93 587.03 662.88 C 511.68 662.81 436.34 660.49 360.99 661.00 C 344.98 660.84 328.97 659.34 312.97 660.61 C 300.66 661.61 288.32 660.37 276.16 658.44 C 271.12 657.53 266.04 656.56 261.25 654.70 C 259.60 653.94 257.37 653.17 257.28 651.02 Z" />
</g>
<g id="#f1642aff">
<path fill="#f1642a" opacity="1.00" d=" M 694.28 387.84 C 699.54 386.45 705.04 387.14 710.41 386.67 C 718.41 393.27 726.02 400.33 733.19 407.81 C 728.63 405.25 723.38 404.48 718.25 404.12 C 720.19 402.77 722.13 401.40 724.05 400.00 C 717.83 399.40 711.54 399.93 705.57 401.79 C 708.08 399.89 710.55 397.95 712.99 395.95 C 704.43 397.90 696.29 401.65 689.53 407.29 C 690.67 405.39 691.82 403.49 692.95 401.58 C 689.76 403.28 686.77 405.76 683.01 405.96 C 679.18 406.17 675.75 407.92 672.45 409.73 C 676.92 404.89 682.34 401.13 687.49 397.09 C 683.05 396.54 678.66 397.38 674.50 398.91 C 680.46 394.18 687.43 391.03 694.28 387.84 Z" />
</g>
<g id="#f27c2bff">
<path fill="#f27c2b" opacity="1.00" d=" M 662.84 434.69 C 660.34 419.09 661.64 401.61 671.98 388.91 C 662.69 402.41 661.27 419.68 664.12 435.44 C 674.23 421.90 689.47 412.07 706.17 409.17 C 690.17 413.28 674.74 422.32 665.72 436.49 C 680.19 435.07 694.75 434.82 709.27 435.54 C 694.44 436.15 679.46 434.97 664.81 437.92 C 663.13 451.01 664.04 464.23 664.73 477.35 C 661.86 464.20 662.39 450.57 663.19 437.22 C 649.45 440.93 637.49 449.93 629.29 461.46 C 626.54 465.15 624.48 469.28 622.06 473.18 C 629.37 455.73 644.15 441.37 662.29 435.58 C 654.76 432.96 647.14 430.19 639.07 430.01 C 630.81 429.41 622.73 431.50 614.90 433.86 C 629.02 427.57 645.45 427.83 659.79 433.32 C 652.33 423.33 644.55 413.52 637.88 402.97 C 643.35 409.59 648.50 416.47 653.67 423.31 C 656.64 427.17 659.10 431.48 662.84 434.69 Z" />
</g>
<g id="#f27d2bff">
<path fill="#f27d2b" opacity="1.00" d=" M 425.93 391.92 C 418.66 403.13 410.44 413.71 402.43 424.40 C 417.36 418.78 434.44 418.38 449.19 424.83 C 440.35 422.22 431.17 420.05 421.88 421.13 C 414.21 421.57 407.03 424.41 399.81 426.77 C 419.61 433.36 435.96 449.35 443.01 468.97 C 434.81 450.16 419.00 433.94 398.80 428.59 C 399.68 442.53 400.03 456.70 397.36 470.49 C 397.67 456.78 398.98 442.98 397.07 429.31 C 381.49 426.29 365.58 427.15 349.82 426.50 C 365.29 425.57 380.78 426.48 396.19 427.80 C 386.65 413.05 370.63 403.44 353.85 399.11 C 371.24 402.18 387.17 412.42 397.66 426.58 C 397.77 424.87 398.21 423.62 398.99 422.82 C 399.04 423.57 399.15 425.07 399.20 425.82 C 403.51 422.10 406.25 417.06 409.74 412.64 C 415.06 405.68 420.30 398.64 425.93 391.92 Z" />
</g>
<g id="#825641ff">
<path fill="#825641" opacity="1.00" d=" M 378.28 398.00 C 379.99 397.67 382.14 399.87 381.70 401.60 C 380.09 401.71 378.29 399.54 378.28 398.00 Z" />
</g>
<g id="#f2782bff">
<path fill="#f2782b" opacity="1.00" d=" M 336.89 400.66 C 339.41 400.76 341.92 401.00 344.44 401.23 C 338.54 402.31 332.28 404.58 329.55 410.39 C 339.16 409.13 348.81 407.22 358.55 408.13 C 353.37 408.85 348.09 410.34 344.48 414.39 C 353.11 414.39 361.74 414.63 370.34 415.42 C 364.73 416.12 359.26 417.58 353.63 418.14 C 354.26 418.43 355.50 419.00 356.12 419.29 C 349.71 418.87 343.22 420.04 337.55 423.14 C 339.61 423.27 341.69 423.40 343.76 423.52 C 341.01 424.27 338.25 424.98 335.54 425.85 C 328.94 424.76 322.18 425.21 315.65 423.63 C 322.27 415.56 329.42 407.94 336.89 400.66 Z" />
</g>
<g id="#f2752bff">
<path fill="#f2752b" opacity="1.00" d=" M 423.03 408.99 C 424.85 407.59 426.68 406.20 428.33 404.61 C 436.09 405.27 443.90 404.38 451.64 405.44 C 460.28 406.65 469.03 405.21 477.67 406.41 C 486.28 407.62 494.99 406.18 503.59 407.41 C 512.21 408.70 520.94 407.19 529.57 408.38 C 538.20 409.61 546.93 408.27 555.57 409.42 C 564.22 410.59 572.98 409.24 581.63 410.41 C 590.25 411.60 598.98 410.24 607.61 411.39 C 616.05 412.45 624.57 411.71 633.06 411.93 C 634.93 414.33 637.18 416.39 639.45 418.41 C 638.60 418.31 636.90 418.10 636.05 417.99 C 636.60 418.60 637.72 419.83 638.28 420.45 C 637.42 420.35 635.70 420.16 634.84 420.07 C 635.81 421.14 636.77 422.20 637.76 423.28 C 633.30 421.55 628.57 420.70 623.79 420.67 C 625.56 421.76 627.36 422.80 629.17 423.82 C 622.15 422.20 614.80 422.42 607.90 424.51 C 610.48 425.13 613.08 425.70 615.70 426.16 C 610.93 427.23 606.88 430.00 603.29 433.20 C 596.08 430.75 588.43 432.66 581.01 431.87 C 575.03 431.25 569.03 430.69 563.02 431.05 C 555.32 431.50 547.72 429.61 540.03 429.95 C 534.63 430.19 529.22 430.10 523.87 429.38 C 515.73 428.27 507.50 429.72 499.37 428.57 C 490.24 427.25 480.97 428.83 471.85 427.37 C 467.35 426.63 462.75 426.78 458.29 427.74 C 457.52 426.89 456.71 426.07 455.92 425.25 C 457.97 425.10 460.01 424.93 462.06 424.77 C 458.44 420.98 453.96 418.07 448.80 416.94 C 451.53 416.44 454.25 415.88 456.96 415.27 C 450.03 412.98 442.60 412.77 435.47 414.19 C 437.07 413.15 438.66 412.10 440.26 411.06 C 435.22 411.17 430.23 412.08 425.54 413.91 C 426.57 412.76 427.60 411.61 428.64 410.46 C 427.69 410.60 425.80 410.87 424.85 411.01 C 425.47 410.32 426.71 408.95 427.33 408.27 C 426.26 408.45 424.10 408.81 423.03 408.99 Z" />
<path fill="#f2752b" opacity="1.00" d=" M 714.78 411.28 C 722.43 410.23 730.17 410.88 737.71 412.41 C 738.63 413.54 739.57 414.65 740.52 415.77 C 738.29 417.67 736.29 419.81 734.40 422.04 C 737.72 421.45 741.02 420.75 744.32 419.98 C 748.11 424.50 751.85 429.08 755.39 433.82 C 743.73 435.39 732.11 431.75 720.49 433.72 C 718.59 433.28 716.69 432.82 714.81 432.38 C 716.98 432.29 719.14 432.18 721.34 432.07 C 715.94 429.13 709.79 428.02 703.70 428.43 C 704.36 428.14 705.67 427.58 706.33 427.30 C 701.09 426.87 696.00 425.53 690.78 424.98 C 698.78 423.68 706.89 423.96 714.96 423.74 C 711.36 420.17 706.51 418.63 701.67 417.65 C 710.84 417.15 719.89 418.80 728.95 419.92 C 726.27 414.46 720.38 412.29 714.78 411.28 Z" />
</g>
<g id="#f26a2cff">
<path fill="#f26a2c" opacity="1.00" d=" M 679.07 411.97 C 680.08 409.68 682.08 408.15 684.11 406.82 C 682.62 408.70 680.97 410.48 679.07 411.97 Z" />
<path fill="#f26a2c" opacity="1.00" d=" M 698.13 636.41 C 716.42 635.51 734.74 636.27 753.05 635.97 C 766.50 635.72 779.99 636.63 793.41 635.48 C 794.68 636.50 795.93 637.59 797.13 638.72 C 791.87 641.73 785.69 641.96 779.91 643.29 C 766.57 646.87 752.62 645.61 738.98 646.37 C 626.00 647.52 513.00 648.33 400.02 649.57 C 396.35 649.40 392.74 648.51 389.06 648.55 C 382.35 648.58 375.69 649.64 368.97 649.77 C 364.03 649.86 359.09 650.04 354.17 650.52 C 345.80 649.67 337.39 650.08 329.00 650.03 C 314.02 650.01 299.03 650.08 284.05 650.02 C 276.16 649.91 268.23 650.49 260.37 649.48 L 259.53 649.40 C 264.09 647.34 269.06 646.55 273.91 645.47 C 280.63 644.02 287.23 641.91 294.10 641.18 C 304.92 640.21 315.78 641.29 326.61 640.94 C 349.40 639.87 372.23 640.14 395.04 640.25 C 421.68 640.30 448.31 639.63 474.95 639.25 C 525.97 638.74 576.99 637.95 628.01 637.31 C 651.38 636.82 674.76 636.99 698.13 636.41 Z" />
</g>
<g id="#f3862dff">
<path fill="#f3862d" opacity="1.00" d=" M 290.78 458.97 C 298.14 446.57 306.48 434.75 315.65 423.63 C 322.18 425.21 328.94 424.76 335.54 425.85 C 332.14 427.03 328.93 428.66 325.84 430.48 C 332.44 430.90 339.07 430.75 345.67 431.24 C 342.84 431.93 340.01 432.62 337.22 433.50 C 344.84 434.58 352.55 433.80 360.07 432.41 C 357.46 433.62 354.88 434.89 352.36 436.26 C 357.92 436.18 363.40 435.16 368.71 433.53 C 367.97 434.22 366.48 435.60 365.74 436.29 C 370.86 436.17 375.84 434.86 380.49 432.79 C 379.83 433.52 378.50 434.99 377.84 435.72 C 380.97 435.63 384.11 435.45 387.24 435.14 C 377.83 442.75 370.23 452.29 362.87 461.81 C 354.72 460.04 346.37 461.85 338.17 460.61 C 329.04 459.24 319.77 460.80 310.64 459.48 C 304.05 458.60 297.39 459.17 290.78 458.97 Z" />
</g>
<g id="#f2802cff">
<path fill="#f2802c" opacity="1.00" d=" M 458.29 427.74 C 462.75 426.78 467.35 426.63 471.85 427.37 C 480.97 428.83 490.24 427.25 499.37 428.57 C 507.50 429.72 515.73 428.27 523.87 429.38 C 529.22 430.10 534.63 430.19 540.03 429.95 C 547.72 429.61 555.32 431.50 563.02 431.05 C 569.03 430.69 575.03 431.25 581.01 431.87 C 588.43 432.66 596.08 430.75 603.29 433.20 C 605.12 433.65 606.99 433.92 608.86 434.20 C 603.83 438.69 600.69 445.09 601.04 451.92 C 604.79 446.63 609.14 441.73 614.66 438.22 C 611.76 442.43 609.70 447.36 610.74 452.58 C 615.64 446.86 620.51 440.99 626.83 436.76 C 624.10 439.97 621.93 443.70 621.56 447.99 C 626.67 444.30 631.52 440.07 637.46 437.76 C 634.05 440.09 630.33 441.93 626.99 444.36 C 628.19 444.53 630.59 444.88 631.79 445.05 C 627.54 447.56 623.28 450.20 619.94 453.89 C 610.02 452.64 600.01 451.76 590.01 452.10 C 582.99 452.28 576.05 450.71 569.03 451.06 C 563.87 451.28 558.71 451.13 553.59 450.48 C 545.49 449.46 537.31 450.70 529.21 449.67 C 524.17 449.05 519.09 448.94 514.03 449.09 C 505.65 449.38 497.36 447.55 488.97 448.08 C 480.61 448.57 472.35 446.63 464.00 447.09 C 457.48 447.39 451.00 446.55 444.49 446.31 C 440.96 442.32 436.41 439.49 431.85 436.83 C 433.04 436.65 435.41 436.28 436.59 436.09 C 433.21 433.27 429.18 431.46 425.59 428.97 C 432.00 431.39 437.15 436.03 442.69 439.91 C 442.21 435.52 440.05 431.68 437.44 428.23 C 443.89 432.75 448.93 438.84 454.08 444.71 C 455.17 439.22 452.99 434.03 449.84 429.67 C 455.74 433.22 460.31 438.44 464.20 444.05 C 464.47 438.06 462.44 432.11 458.29 427.74 Z" />
</g>
<g id="#f3842cff">
<path fill="#f3842c" opacity="1.00" d=" M 720.49 433.72 C 732.11 431.75 743.73 435.39 755.39 433.82 C 762.75 443.60 769.41 453.90 775.47 464.54 C 774.08 468.72 772.76 472.93 771.48 477.14 C 764.93 477.09 758.37 477.18 751.87 476.37 C 744.61 475.41 737.28 476.43 730.01 475.77 C 720.82 474.73 711.48 474.35 702.30 475.63 C 693.89 464.10 685.19 452.53 674.10 443.42 C 677.12 443.78 680.16 443.94 683.22 444.01 C 682.19 442.99 681.18 442.00 680.16 441.01 C 684.63 443.16 689.49 444.36 694.45 444.57 C 693.78 443.90 692.42 442.56 691.74 441.89 C 696.81 443.52 702.09 444.44 707.42 444.58 C 705.12 443.35 702.77 442.21 700.44 441.08 C 707.45 442.13 714.57 442.92 721.65 441.91 C 718.95 441.07 716.24 440.31 713.54 439.55 C 719.78 439.42 726.04 439.47 732.28 438.99 C 728.59 436.73 724.60 435.01 720.49 433.72 Z" />
</g>
<g id="#f3902dff">
<path fill="#f3902d" opacity="1.00" d=" M 362.83 476.82 C 370.69 464.51 379.28 452.59 389.45 442.07 C 389.67 442.73 390.13 444.05 390.35 444.72 C 391.12 444.16 392.67 443.05 393.44 442.50 C 390.67 446.26 388.44 450.44 387.48 455.06 C 388.73 454.31 389.98 453.57 391.23 452.83 C 388.63 457.14 386.82 461.88 385.91 466.84 C 387.70 464.95 389.43 463.01 391.17 461.06 C 389.74 465.24 388.54 469.48 387.71 473.82 C 387.22 475.28 386.67 476.71 386.13 478.16 C 378.32 478.51 370.62 476.81 362.83 476.82 Z" />
</g>
<g id="#f3932dff">
<path fill="#f3932d" opacity="1.00" d=" M 409.43 442.07 C 412.54 449.68 413.77 457.86 416.39 465.62 C 418.87 460.88 418.77 455.49 418.27 450.32 C 421.41 458.22 423.29 466.52 425.13 474.81 C 428.95 470.85 429.47 465.28 429.58 460.06 C 431.47 467.45 432.40 475.06 432.53 482.70 C 422.31 481.08 411.84 483.39 401.73 480.85 C 405.30 476.75 406.45 471.30 406.65 466.02 C 406.94 467.12 407.51 469.33 407.80 470.43 C 409.01 465.23 408.85 459.82 407.40 454.69 C 408.49 455.92 409.57 457.13 410.69 458.36 C 409.85 452.97 409.04 447.54 409.43 442.07 Z" />
</g>
<g id="#f38d2dff">
<path fill="#f38d2d" opacity="1.00" d=" M 438.72 445.97 C 441.41 446.98 444.09 447.96 446.81 448.90 C 446.23 448.25 445.07 446.96 444.49 446.31 C 451.00 446.55 457.48 447.39 464.00 447.09 C 472.35 446.63 480.61 448.57 488.97 448.08 C 497.36 447.55 505.65 449.38 514.03 449.09 C 519.09 448.94 524.17 449.05 529.21 449.67 C 537.31 450.70 545.49 449.46 553.59 450.48 C 558.71 451.13 563.87 451.28 569.03 451.06 C 576.05 450.71 582.99 452.28 590.01 452.10 C 600.01 451.76 610.02 452.64 619.94 453.89 L 617.63 456.50 C 619.44 455.86 623.06 454.58 624.87 453.94 C 616.67 459.96 610.47 468.35 606.51 477.67 C 609.40 475.13 612.19 472.49 614.97 469.83 C 612.37 474.51 610.28 479.54 609.51 484.88 C 603.59 485.05 597.64 485.12 591.75 484.34 C 583.42 483.26 574.99 484.58 566.66 483.40 C 558.26 482.23 549.76 483.64 541.36 482.49 C 532.49 481.20 523.50 482.74 514.64 481.41 C 506.54 480.25 498.34 481.57 490.22 480.56 C 484.84 479.89 479.41 479.77 474.00 479.96 C 467.76 480.18 461.57 479.18 455.36 478.86 C 454.55 473.28 452.38 468.03 449.72 463.10 C 452.64 465.81 455.53 468.57 458.51 471.22 C 454.28 461.25 447.63 452.24 438.72 445.97 Z" />
</g>
<g id="#f3892dff">
<path fill="#f3892d" opacity="1.00" d=" M 671.84 449.88 C 677.88 456.04 683.33 462.76 688.35 469.78 C 683.78 470.02 679.20 470.14 674.63 470.17 C 673.78 466.70 672.16 463.48 670.47 460.35 C 671.35 460.84 673.11 461.82 673.99 462.31 C 672.94 458.07 670.96 454.17 668.42 450.64 C 669.22 451.11 670.80 452.07 671.59 452.55 C 671.65 451.88 671.78 450.54 671.84 449.88 Z" />
</g>
<g id="#f3912dff">
<path fill="#f3912d" opacity="1.00" d=" M 652.95 450.63 C 653.48 455.62 652.61 460.58 651.89 465.50 C 652.62 464.65 654.09 462.95 654.83 462.10 C 653.70 466.99 653.67 472.04 654.36 477.00 C 654.78 475.61 655.22 474.24 655.63 472.86 C 656.05 478.21 657.05 484.34 661.67 487.78 C 661.71 486.14 661.69 484.53 661.66 482.91 C 662.72 485.06 663.83 487.19 665.10 489.23 C 653.89 486.99 642.42 489.24 631.21 487.17 C 631.43 480.31 632.22 473.45 634.16 466.85 C 633.94 471.93 634.57 477.28 638.15 481.20 C 639.93 473.22 641.77 465.24 644.78 457.62 C 644.14 462.69 644.16 467.95 646.55 472.60 C 648.79 465.31 650.03 457.71 652.95 450.63 Z" />
</g>
<g id="#f3962eff">
<path fill="#f3962e" opacity="1.00" d=" M 290.78 458.97 C 297.39 459.17 304.05 458.60 310.64 459.48 C 319.77 460.80 329.04 459.24 338.17 460.61 C 346.37 461.85 354.72 460.04 362.87 461.81 C 353.73 473.98 345.44 486.76 337.66 499.83 C 330.66 497.74 323.31 497.67 316.07 497.91 C 308.73 498.29 301.49 496.56 294.15 496.92 C 293.70 497.44 292.80 498.47 292.35 498.98 C 290.00 489.26 287.39 479.60 284.51 470.02 C 286.57 466.32 288.61 462.61 290.78 458.97 Z" />
<path fill="#f3962e" opacity="1.00" d=" M 702.30 475.63 C 711.48 474.35 720.82 474.73 730.01 475.77 C 737.28 476.43 744.61 475.41 751.87 476.37 C 758.37 477.18 764.93 477.09 771.48 477.14 C 767.69 489.69 764.45 502.40 761.68 515.21 C 749.96 515.16 738.32 512.87 726.61 514.23 C 719.14 500.98 711.11 488.03 702.30 475.63 Z" />
<path fill="#f3962e" opacity="1.00" d=" M 775.49 501.43 C 777.33 493.03 779.43 484.69 781.77 476.42 C 785.92 484.77 789.70 493.30 793.06 502.01 C 787.19 502.16 781.31 502.18 775.49 501.43 Z" />
</g>
<g id="#f3922dff">
<path fill="#f3922d" opacity="1.00" d=" M 670.19 467.76 C 671.85 469.70 673.55 471.61 675.31 473.45 C 675.14 472.63 674.80 470.99 674.63 470.17 C 679.20 470.14 683.78 470.02 688.35 469.78 C 693.69 477.21 698.65 484.91 703.30 492.80 C 699.31 493.11 695.30 493.12 691.34 492.60 C 684.67 491.72 677.94 492.13 671.25 492.08 C 670.92 487.92 670.45 483.78 670.05 479.64 C 671.27 481.93 672.48 484.22 673.79 486.47 C 674.12 480.02 672.57 473.71 670.19 467.76 Z" />
</g>
<g id="#f49f2fff">
<path fill="#f49f2f" opacity="1.00" d=" M 391.61 473.10 C 390.95 479.08 390.26 485.06 390.04 491.07 C 394.63 487.18 397.78 482.01 400.53 476.74 C 400.26 478.86 399.99 480.98 399.75 483.13 C 400.25 482.56 401.24 481.42 401.73 480.85 C 411.84 483.39 422.31 481.08 432.53 482.70 C 432.57 484.78 432.55 486.88 432.77 488.96 C 434.17 489.57 435.36 488.16 436.39 487.39 C 440.02 483.99 439.99 478.66 440.45 474.09 C 443.28 482.63 444.25 491.65 443.79 500.61 C 447.36 497.75 449.65 493.63 450.17 489.08 C 455.24 488.90 460.33 488.89 465.37 489.56 C 473.74 490.70 482.21 489.37 490.58 490.50 C 499.45 491.73 508.44 490.30 517.32 491.57 C 525.95 492.76 534.70 491.31 543.34 492.55 C 552.00 493.74 560.77 492.31 569.43 493.58 C 574.91 494.37 580.45 494.08 585.96 493.98 C 591.67 493.86 597.30 495.16 603.01 495.06 C 606.97 495.09 611.25 494.39 614.82 496.59 C 615.47 500.19 617.62 503.25 620.46 505.49 C 620.04 497.04 621.05 488.59 623.52 480.49 C 623.98 483.83 624.04 487.34 625.55 490.43 C 626.61 492.70 628.88 493.98 630.82 495.42 C 630.99 492.67 631.11 489.92 631.21 487.17 C 642.42 489.24 653.89 486.99 665.10 489.23 C 666.84 491.97 669.10 494.33 671.50 496.51 C 671.43 495.03 671.34 493.55 671.25 492.08 C 677.94 492.13 684.67 491.72 691.34 492.60 C 695.30 493.12 699.31 493.11 703.30 492.80 C 708.96 502.36 714.20 512.17 719.00 522.19 C 711.98 522.16 705.03 520.80 698.00 521.03 C 692.87 521.18 687.73 521.16 682.64 520.48 C 674.25 519.36 665.77 520.79 657.39 519.54 C 648.50 518.22 639.48 519.81 630.58 518.49 C 621.95 517.27 613.20 518.71 604.57 517.50 C 596.46 516.33 588.26 517.77 580.16 516.63 C 571.02 515.35 561.76 516.76 552.62 515.51 C 544.24 514.38 535.77 515.72 527.39 514.55 C 518.74 513.40 509.99 514.74 501.35 513.55 C 492.46 512.39 483.47 513.74 474.59 512.51 C 466.20 511.39 457.72 512.71 449.34 511.57 C 440.73 510.33 432.02 511.78 423.42 510.56 C 414.52 509.28 405.51 510.79 396.62 509.48 C 388.52 508.35 380.31 509.77 372.21 508.64 C 363.18 507.35 354.06 508.45 344.99 507.97 C 350.47 497.33 356.42 486.93 362.83 476.82 C 370.62 476.81 378.32 478.51 386.13 478.16 C 386.67 476.71 387.22 475.28 387.71 473.82 C 387.62 475.99 387.65 478.17 387.69 480.36 C 389.06 477.97 390.36 475.55 391.61 473.10 Z" />
<path fill="#f49f2f" opacity="1.00" d=" M 775.49 501.43 C 781.31 502.18 787.19 502.16 793.06 502.01 C 795.45 508.34 797.67 514.73 799.63 521.22 C 790.42 519.84 781.11 519.91 771.83 519.89 C 772.91 513.71 774.14 507.55 775.49 501.43 Z" />
</g>
<g id="#f4972eff">
<path fill="#f4972e" opacity="1.00" d=" M 449.87 477.86 C 451.90 480.17 453.95 482.46 456.05 484.71 C 455.83 482.75 455.63 480.80 455.36 478.86 C 461.57 479.18 467.76 480.18 474.00 479.96 C 479.41 479.77 484.84 479.89 490.22 480.56 C 498.34 481.57 506.54 480.25 514.64 481.41 C 523.50 482.74 532.49 481.20 541.36 482.49 C 549.76 483.64 558.26 482.23 566.66 483.40 C 574.99 484.58 583.42 483.26 591.75 484.34 C 597.64 485.12 603.59 485.05 609.51 484.88 C 609.25 486.75 609.06 488.62 608.88 490.51 C 610.86 488.35 612.81 486.17 614.72 483.95 C 614.28 488.15 613.99 492.41 614.82 496.59 C 611.25 494.39 606.97 495.09 603.01 495.06 C 597.30 495.16 591.67 493.86 585.96 493.98 C 580.45 494.08 574.91 494.37 569.43 493.58 C 560.77 492.31 552.00 493.74 543.34 492.55 C 534.70 491.31 525.95 492.76 517.32 491.57 C 508.44 490.30 499.45 491.73 490.58 490.50 C 482.21 489.37 473.74 490.70 465.37 489.56 C 460.33 488.89 455.24 488.90 450.17 489.08 C 450.49 485.34 450.22 481.58 449.87 477.86 Z" />
</g>
<g id="#f5a42fff">
<path fill="#f5a42f" opacity="1.00" d=" M 277.59 483.99 C 280.07 493.93 282.22 503.96 284.05 514.05 C 278.08 513.04 272.01 512.84 265.97 512.99 C 269.33 503.13 273.16 493.42 277.59 483.99 Z" />
</g>
<g id="#f5a82fff">
<path fill="#f5a82f" opacity="1.00" d=" M 292.35 498.98 C 292.80 498.47 293.70 497.44 294.15 496.92 C 301.49 496.56 308.73 498.29 316.07 497.91 C 323.31 497.67 330.66 497.74 337.66 499.83 C 329.27 513.99 321.59 528.58 314.82 543.58 C 310.15 542.63 305.38 542.56 300.65 542.84 C 298.68 528.08 295.81 513.46 292.35 498.98 Z" />
</g>
<g id="#f5ac30ff">
<path fill="#f5ac30" opacity="1.00" d=" M 344.99 507.97 C 354.06 508.45 363.18 507.35 372.21 508.64 C 380.31 509.77 388.52 508.35 396.62 509.48 C 405.51 510.79 414.52 509.28 423.42 510.56 C 432.02 511.78 440.73 510.33 449.34 511.57 C 457.72 512.71 466.20 511.39 474.59 512.51 C 483.47 513.74 492.46 512.39 501.35 513.55 C 509.99 514.74 518.74 513.40 527.39 514.55 C 535.77 515.72 544.24 514.38 552.62 515.51 C 561.76 516.76 571.02 515.35 580.16 516.63 C 588.26 517.77 596.46 516.33 604.57 517.50 C 613.20 518.71 621.95 517.27 630.58 518.49 C 639.48 519.81 648.50 518.22 657.39 519.54 C 665.77 520.79 674.25 519.36 682.64 520.48 C 687.73 521.16 692.87 521.18 698.00 521.03 C 705.03 520.80 711.98 522.16 719.00 522.19 C 723.96 532.52 728.50 543.06 732.31 553.88 C 722.84 554.89 713.49 552.22 704.03 553.01 C 696.31 553.57 688.70 551.61 680.98 551.91 C 675.61 552.09 670.24 551.99 664.90 551.35 C 656.49 550.37 648.00 551.71 639.61 550.48 C 631.24 549.27 622.77 550.75 614.41 549.53 C 605.52 548.31 596.52 549.82 587.64 548.49 C 579.27 547.20 570.79 548.78 562.43 547.53 C 553.52 546.19 544.50 547.67 535.59 546.47 C 527.21 545.27 518.72 546.68 510.34 545.51 C 501.46 544.27 492.48 545.72 483.61 544.45 C 474.97 543.30 466.24 544.78 457.62 543.48 C 449.22 542.25 440.72 543.62 432.31 542.55 C 423.15 541.41 413.89 542.63 404.75 541.38 C 396.66 540.33 388.49 541.66 380.41 540.53 C 372.03 539.30 363.54 540.67 355.15 539.61 C 347.05 538.57 338.88 539.19 330.76 538.85 C 335.01 528.34 339.81 518.05 344.99 507.97 Z" />
</g>
<g id="#f6af30ff">
<path fill="#f6af30" opacity="1.00" d=" M 265.97 512.99 C 272.01 512.84 278.08 513.04 284.05 514.05 C 285.40 521.73 286.62 529.43 287.53 537.18 C 278.12 537.03 268.77 535.53 259.34 535.87 C 261.25 528.16 263.47 520.53 265.97 512.99 Z" />
</g>
<g id="#f5a72fff">
<path fill="#f5a72f" opacity="1.00" d=" M 726.61 514.23 C 738.32 512.87 749.96 515.16 761.68 515.21 C 757.28 536.30 753.68 557.78 754.48 579.40 C 748.90 556.30 737.98 534.94 726.61 514.23 Z" />
<path fill="#f5a72f" opacity="1.00" d=" M 769.04 538.22 C 769.81 532.09 770.76 525.97 771.83 519.89 C 781.11 519.91 790.42 519.84 799.63 521.22 C 801.53 527.51 803.24 533.86 804.68 540.27 C 797.82 539.66 790.95 538.74 784.05 539.05 C 779.03 539.25 773.99 539.08 769.04 538.22 Z" />
</g>
<g id="#f6bb31ff">
<path fill="#f6bb31" opacity="1.00" d=" M 253.82 565.05 C 255.15 555.24 257.02 545.50 259.34 535.87 C 268.77 535.53 278.12 537.03 287.53 537.18 C 288.67 546.72 289.48 556.31 289.65 565.93 C 283.21 565.92 276.75 566.36 270.34 565.53 C 264.86 564.83 259.33 564.91 253.82 565.05 Z" />
<path fill="#f6bb31" opacity="1.00" d=" M 330.76 538.85 C 338.88 539.19 347.05 538.57 355.15 539.61 C 363.54 540.67 372.03 539.30 380.41 540.53 C 388.49 541.66 396.66 540.33 404.75 541.38 C 413.89 542.63 423.15 541.41 432.31 542.55 C 440.72 543.62 449.22 542.25 457.62 543.48 C 466.24 544.78 474.97 543.30 483.61 544.45 C 492.48 545.72 501.46 544.27 510.34 545.51 C 518.72 546.68 527.21 545.27 535.59 546.47 C 544.50 547.67 553.52 546.19 562.43 547.53 C 570.79 548.78 579.27 547.20 587.64 548.49 C 596.52 549.82 605.52 548.31 614.41 549.53 C 622.77 550.75 631.24 549.27 639.61 550.48 C 648.00 551.71 656.49 550.37 664.90 551.35 C 670.24 551.99 675.61 552.09 680.98 551.91 C 688.70 551.61 696.31 553.57 704.03 553.01 C 713.49 552.22 722.84 554.89 732.31 553.88 C 735.48 563.04 738.39 572.36 739.87 581.97 C 734.11 582.19 728.34 582.20 722.62 581.52 C 714.22 580.45 705.73 581.70 697.34 580.58 C 688.70 579.42 679.95 580.82 671.31 579.60 C 662.72 578.39 654.02 579.79 645.43 578.57 C 636.79 577.33 628.05 578.79 619.41 577.60 C 610.77 576.37 602.02 577.72 593.38 576.57 C 585.02 575.41 576.56 576.75 568.19 575.66 C 559.03 574.37 549.75 575.83 540.58 574.55 C 532.20 573.41 523.72 574.78 515.35 573.58 C 506.73 572.37 498.01 573.80 489.40 572.60 C 480.50 571.36 471.49 572.82 462.60 571.52 C 454.23 570.31 445.77 571.81 437.41 570.62 C 428.79 569.40 420.06 570.76 411.44 569.57 C 402.79 568.40 394.04 569.80 385.39 568.60 C 376.75 567.37 368.00 568.79 359.36 567.61 C 351.28 566.48 343.11 567.61 335.02 566.78 C 330.49 566.33 325.96 565.93 321.42 565.72 C 323.97 556.58 327.20 547.64 330.76 538.85 Z" />
<path fill="#f6bb31" opacity="1.00" d=" M 300.65 542.84 C 305.38 542.56 310.15 542.63 314.82 543.58 C 309.69 555.06 305.15 566.87 302.42 579.18 C 303.33 567.04 302.17 554.87 300.65 542.84 Z" />
</g>
<g id="#f6b330ff">
<path fill="#f6b330" opacity="1.00" d=" M 769.04 538.22 C 773.99 539.08 779.03 539.25 784.05 539.05 C 790.95 538.74 797.82 539.66 804.68 540.27 C 806.90 550.17 808.73 560.18 809.76 570.29 C 802.90 569.31 795.98 568.62 789.04 568.95 C 781.58 569.35 774.20 567.88 766.76 567.80 C 766.95 557.91 767.81 548.04 769.04 538.22 Z" />
</g>
<g id="#f6c932ff">
<path fill="#f6c932" opacity="1.00" d=" M 251.31 603.04 C 251.31 590.34 252.14 577.64 253.82 565.05 C 259.33 564.91 264.86 564.83 270.34 565.53 C 276.75 566.36 283.21 565.92 289.65 565.93 C 289.75 571.02 289.60 576.13 289.35 581.22 C 286.76 582.20 283.97 582.93 281.76 584.68 C 278.85 587.38 279.14 592.43 275.46 594.46 C 270.00 597.11 263.86 594.77 258.12 595.32 C 254.38 596.07 252.79 599.96 251.31 603.04 Z" />
</g>
<g id="#f6cb32ff">
<path fill="#f6cb32" opacity="1.00" d=" M 317.84 581.49 C 318.79 576.18 319.96 570.91 321.42 565.72 C 325.96 565.93 330.49 566.33 335.02 566.78 C 343.11 567.61 351.28 566.48 359.36 567.61 C 368.00 568.79 376.75 567.37 385.39 568.60 C 394.04 569.80 402.79 568.40 411.44 569.57 C 420.06 570.76 428.79 569.40 437.41 570.62 C 445.77 571.81 454.23 570.31 462.60 571.52 C 471.49 572.82 480.50 571.36 489.40 572.60 C 498.01 573.80 506.73 572.37 515.35 573.58 C 523.72 574.78 532.20 573.41 540.58 574.55 C 549.75 575.83 559.03 574.37 568.19 575.66 C 576.56 576.75 585.02 575.41 593.38 576.57 C 602.02 577.72 610.77 576.37 619.41 577.60 C 628.05 578.79 636.79 577.33 645.43 578.57 C 654.02 579.79 662.72 578.39 671.31 579.60 C 679.95 580.82 688.70 579.42 697.34 580.58 C 705.73 581.70 714.22 580.45 722.62 581.52 C 728.34 582.20 734.11 582.19 739.87 581.97 L 739.89 582.56 C 735.18 585.38 734.40 592.01 728.94 593.84 C 721.29 597.38 712.86 594.58 704.88 595.41 C 698.43 596.28 697.76 604.76 691.85 606.56 C 687.95 607.56 683.87 607.38 679.93 608.13 C 671.03 609.64 662.23 611.68 653.47 613.83 C 603.64 614.06 553.80 614.69 503.97 614.16 C 483.88 614.00 463.79 614.31 443.71 614.37 C 432.80 614.30 421.90 613.96 411.00 614.09 C 403.29 613.14 395.85 610.65 388.20 609.34 C 382.28 607.87 376.17 607.68 370.19 606.69 C 365.41 605.57 363.90 600.35 360.69 597.29 C 357.76 594.66 353.50 595.11 349.88 595.34 C 343.33 595.95 336.13 596.30 330.35 592.63 C 327.37 590.81 326.61 587.11 324.29 584.71 C 322.40 583.18 320.03 582.45 317.84 581.49 Z" />
</g>
<g id="#f6bf31ff">
<path fill="#f6bf31" opacity="1.00" d=" M 766.76 567.80 C 774.20 567.88 781.58 569.35 789.04 568.95 C 795.98 568.62 802.90 569.31 809.76 570.29 L 809.91 570.30 C 811.04 582.01 811.83 593.75 811.62 605.52 C 809.37 602.00 808.34 596.87 803.91 595.42 C 798.12 594.59 791.97 597.12 786.40 594.60 C 782.09 592.60 782.89 586.47 779.00 584.08 C 775.41 581.78 771.09 581.15 766.99 580.36 C 766.78 576.18 766.68 571.99 766.76 567.80 Z" />
</g>
<g id="#f6cc32ff">
<path fill="#f6cc32" opacity="1.00" d=" M 738.76 615.05 C 762.96 614.94 787.15 615.03 811.35 615.00 L 811.27 616.37 C 790.00 616.24 768.73 616.20 747.46 616.00 C 744.55 615.71 741.66 615.32 738.76 615.05 Z" />
</g>
<g id="#f2612aff">
<path fill="#f2612a" opacity="1.00" d=" M 288.76 624.68 C 292.21 623.59 295.88 623.24 299.49 623.32 C 306.95 624.47 314.50 623.88 322.01 624.00 C 341.00 624.02 360.00 623.97 378.99 624.04 C 387.56 624.11 396.15 623.66 404.71 624.32 C 408.30 625.74 412.19 625.78 416.00 625.84 C 436.01 626.07 456.06 624.30 476.03 626.09 C 500.37 627.38 524.70 624.90 549.05 625.13 C 576.70 624.95 604.34 625.97 631.99 626.48 C 658.66 626.91 685.33 627.28 712.00 627.62 C 730.38 627.40 748.69 629.04 767.01 630.26 C 775.93 631.10 785.13 631.74 793.41 635.48 C 779.99 636.63 766.50 635.72 753.05 635.97 C 734.74 636.27 716.42 635.51 698.13 636.41 C 686.55 636.42 674.96 636.30 663.38 635.94 C 552.95 634.90 442.51 633.77 332.07 632.62 C 319.03 632.62 305.96 632.99 292.94 632.06 C 290.21 631.71 286.75 631.64 285.10 629.05 C 284.45 626.75 286.99 625.35 288.76 624.68 Z" />
</g>
<g id="#f47b2fff">
<path fill="#f47b2f" opacity="1.00" d=" M 741.15 664.40 C 753.42 663.88 765.77 663.57 778.01 664.57 L 778.72 664.64 C 775.61 665.90 772.36 666.77 769.21 667.90 C 763.42 670.18 757.09 670.08 751.02 671.00 C 740.43 672.51 729.76 673.75 719.04 673.57 C 696.36 672.94 673.68 674.08 651.01 674.33 C 596.67 675.08 542.33 674.96 487.99 675.83 C 432.66 676.59 377.33 677.33 322.00 677.87 C 316.26 677.69 310.57 678.84 304.84 678.30 C 293.91 677.62 282.95 678.21 272.00 677.97 C 273.15 676.40 274.24 674.62 276.14 673.89 C 282.52 671.03 289.66 671.04 296.48 670.15 C 304.27 669.15 312.09 668.37 319.94 668.27 C 330.62 667.60 341.30 666.93 352.01 667.02 C 357.70 667.08 363.32 668.27 369.03 668.26 C 381.00 668.38 392.95 667.29 404.92 667.69 C 429.30 668.12 453.67 667.47 478.04 667.25 C 541.03 666.48 604.02 665.91 667.01 665.13 C 691.72 664.59 716.45 665.12 741.15 664.40 Z" />
</g>
<g id="#f58231ff">
<path fill="#f58231" opacity="1.00" d=" M 272.00 677.97 C 282.95 678.21 293.91 677.62 304.84 678.30 C 308.91 678.74 313.00 678.46 317.08 678.28 C 384.21 678.79 451.34 680.18 518.47 680.32 C 531.63 680.42 544.77 681.51 557.93 681.18 C 573.27 681.03 588.61 680.37 603.96 680.50 C 640.28 680.76 676.62 679.08 712.92 680.94 C 721.92 681.49 730.98 680.84 739.96 681.73 C 746.00 682.76 752.57 684.54 756.57 689.55 C 743.74 690.44 730.87 689.78 718.03 690.03 C 695.01 689.85 672.00 690.19 648.99 689.93 C 645.78 689.89 642.59 690.31 639.43 690.79 C 591.30 690.63 543.16 689.45 495.03 689.12 C 467.69 688.81 440.36 688.40 413.03 687.94 C 385.35 687.38 357.67 687.51 329.99 686.87 C 312.41 687.08 294.61 686.72 277.47 682.37 C 275.17 681.68 271.84 681.08 272.00 677.97 Z" />
</g>
<g id="#f68933ff">
<path fill="#f68933" opacity="1.00" d=" M 639.43 690.79 C 642.59 690.31 645.78 689.89 648.99 689.93 C 672.00 690.19 695.01 689.85 718.03 690.03 C 730.87 689.78 743.74 690.44 756.57 689.55 L 757.26 689.50 C 757.51 691.14 757.15 692.92 755.24 693.19 C 745.18 696.53 734.46 696.70 724.10 698.57 C 710.58 701.34 696.72 699.85 683.03 700.23 C 661.35 699.72 639.68 700.84 618.01 701.09 C 568.33 701.93 518.66 702.60 468.99 703.62 C 463.51 703.61 458.02 704.06 452.55 703.79 C 450.37 703.47 448.18 703.10 445.99 702.99 C 415.97 703.02 385.95 702.95 355.94 703.02 C 347.11 703.22 338.23 702.52 329.44 703.58 L 329.07 703.62 C 328.34 702.32 326.60 701.08 327.55 699.46 C 328.64 698.05 330.45 697.54 332.07 697.01 C 339.83 694.80 347.95 694.53 355.96 694.28 C 367.98 693.99 380.00 693.68 392.03 693.75 C 408.33 693.85 424.64 693.15 440.92 694.18 C 455.93 695.49 471.00 694.54 486.03 694.60 C 537.70 693.85 589.35 692.78 641.02 692.09 C 652.71 691.78 664.42 691.92 676.11 691.44 C 663.88 691.23 651.65 691.19 639.43 690.79 Z" />
</g>
<g id="#f79136ff">
<path fill="#f79136" opacity="1.00" d=" M 329.44 703.58 C 338.23 702.52 347.11 703.22 355.94 703.02 C 385.95 702.95 415.97 703.02 445.99 702.99 C 448.18 703.10 450.37 703.47 452.55 703.79 C 427.75 704.41 402.90 705.19 378.10 704.73 C 383.56 706.44 389.37 705.97 395.01 706.07 C 432.67 706.70 470.34 706.93 508.00 707.64 C 514.98 707.76 521.95 708.64 528.93 708.16 C 539.97 707.42 551.03 707.66 562.08 707.62 C 571.85 707.64 581.67 708.42 591.41 707.16 C 601.22 705.91 611.12 706.29 620.98 706.04 C 630.66 706.02 640.34 705.62 650.02 706.25 C 661.67 706.98 673.33 705.91 684.99 706.34 C 691.63 706.73 698.50 707.47 704.48 710.59 C 706.21 711.41 708.24 713.57 706.38 715.33 C 702.54 718.34 697.33 718.98 692.65 719.68 C 682.15 718.30 671.53 719.21 660.98 719.03 C 647.71 718.83 634.42 719.34 621.16 718.66 C 577.46 717.00 533.70 717.17 489.98 716.14 C 464.67 715.42 439.34 715.40 414.02 714.71 C 393.66 713.76 373.18 713.84 352.96 710.92 C 344.85 709.65 336.38 708.29 329.44 703.58 Z" />
</g>
<g id="#f89a38ff">
<path fill="#f89a38" opacity="1.00" d=" M 536.01 720.79 C 564.39 720.11 592.77 718.88 621.16 718.66 C 634.42 719.34 647.71 718.83 660.98 719.03 C 671.53 719.21 682.15 718.30 692.65 719.68 C 677.68 723.21 662.28 724.51 646.96 725.51 C 621.55 726.99 596.08 726.72 570.66 727.90 C 555.11 728.63 539.55 728.72 524.00 729.09 C 517.55 729.24 510.99 728.90 504.68 730.44 C 508.59 731.93 512.81 732.16 516.96 732.23 C 525.63 732.31 534.29 733.16 542.96 732.79 C 555.97 732.42 568.95 731.45 581.96 731.26 C 585.87 731.62 590.63 731.00 593.63 734.08 C 593.07 736.13 590.78 736.50 589.04 737.02 C 582.83 738.44 576.43 738.84 570.10 739.32 C 557.74 740.00 545.40 741.15 533.02 741.01 C 519.29 741.17 505.62 739.67 491.93 738.98 C 473.91 737.91 455.86 737.14 437.93 734.97 C 430.49 734.09 423.40 731.37 415.93 730.72 C 412.67 730.28 409.24 730.22 406.26 728.72 C 405.32 728.19 404.95 727.40 405.17 726.35 C 406.74 724.29 409.47 723.85 411.84 723.32 C 422.11 721.48 432.59 721.59 442.98 721.30 C 473.99 720.67 505.01 721.86 536.01 720.79 Z" />
</g>
</svg>
